<?xml version="1.0" encoding="UTF-8" standalone="no"?>
<svg
   data-name="Layer 1"
   width="717.67004"
   height="595.3292"
   viewBox="0 0 717.67004 595.3292"
   version="1.1"
   id="svg103"
   sodipodi:docname="home-img.svg"
   inkscape:version="1.1 (c68e22c387, 2021-05-23)"
   xmlns:inkscape="http://www.inkscape.org/namespaces/inkscape"
   xmlns:sodipodi="http://sodipodi.sourceforge.net/DTD/sodipodi-0.dtd"
   xmlns="http://www.w3.org/2000/svg"
   xmlns:svg="http://www.w3.org/2000/svg">
  <defs
     id="defs107" />
  <sodipodi:namedview
     id="namedview105"
     pagecolor="#ffffff"
     bordercolor="#666666"
     borderopacity="1.0"
     inkscape:pageshadow="2"
     inkscape:pageopacity="0.0"
     inkscape:pagecheckerboard="0"
     showgrid="false"
     inkscape:zoom="1.2984412"
     inkscape:cx="358.5068"
     inkscape:cy="297.66461"
     inkscape:window-width="1920"
     inkscape:window-height="991"
     inkscape:window-x="-9"
     inkscape:window-y="-9"
     inkscape:window-maximized="1"
     inkscape:current-layer="svg103" />
  <rect
     x="156.85476"
     width="326"
     height="594"
     rx="58.72835"
     fill="#3f3d56"
     id="rect9" />
  <path
     d="M718.5202,211.06773v476.54a53.29169,53.29169,0,0,1-53.23,53.23h-208.54a53.29169,53.29169,0,0,1-53.23-53.23v-476.54a53.29173,53.29173,0,0,1,53.23-53.23h27.27v9.42a16.08092,16.08092,0,0,0,16.08,16.08h121.84a16.08092,16.08092,0,0,0,16.08-16.08v-9.42h27.27A53.29174,53.29174,0,0,1,718.5202,211.06773Z"
     transform="translate(-241.16498 -152.3354)"
     fill="#fff"
     id="path11" />
  <path
     d="M396.51974,272.83541a4.0046,4.0046,0,0,1-4-4v-8a4,4,0,0,1,8,0v8A4.00458,4.00458,0,0,1,396.51974,272.83541Z"
     transform="translate(-241.16498 -152.3354)"
     fill="#3f3d56"
     id="path13" />
  <path
     d="M396.51974,313.85689a4.00458,4.00458,0,0,1-4-4V287.83541a4,4,0,0,1,8,0v22.02148A4.00458,4.00458,0,0,1,396.51974,313.85689Z"
     transform="translate(-241.16498 -152.3354)"
     fill="#3f3d56"
     id="path15" />
  <path
     d="M396.51974,346.83541a4.00458,4.00458,0,0,1-4-4V320.81392a4,4,0,0,1,8,0v22.02149A4.00459,4.00459,0,0,1,396.51974,346.83541Z"
     transform="translate(-241.16498 -152.3354)"
     fill="#3f3d56"
     id="path17" />
  <path
     d="M724.51974,328.8354a4.00458,4.00458,0,0,1-4-4V271.102a4,4,0,0,1,8,0v53.7334A4.00459,4.00459,0,0,1,724.51974,328.8354Z"
     transform="translate(-241.16498 -152.3354)"
     fill="#3f3d56"
     id="path19" />
  <path
     d="M569.61227,170.6812h-31a2.5,2.5,0,0,1,0-5h31a2.5,2.5,0,0,1,0,5Z"
     transform="translate(-241.16498 -152.3354)"
     fill="#fff"
     id="path21" />
  <circle
     cx="344.44729"
     cy="15.8458"
     r="2"
     fill="#fff"
     id="circle23" />
  <path
     d="M472.10563,181.40845h-27a5,5,0,0,1,0-10h27a5,5,0,0,1,0,10Z"
     transform="translate(-241.16498 -152.3354)"
     fill="#e6e6e6"
     id="path25" />
  <path
     d="M574.5202,391.03047h-27a5,5,0,0,1,0-10h27a5,5,0,0,1,0,10Z"
     transform="translate(-241.16498 -152.3354)"
     fill="#e6e6e6"
     id="path27" />
  <circle
     cx="407.94066"
     cy="24.07305"
     r="4.5"
     fill="#e6e6e6"
     id="circle29" />
  <circle
     cx="421.94066"
     cy="24.07305"
     r="4.5"
     fill="#e6e6e6"
     id="circle31" />
  <circle
     cx="435.94066"
     cy="24.07305"
     r="4.5"
     fill="#e6e6e6"
     id="circle33" />
  <path
     d="M647.32261,461.03047H460.59019a18.1543,18.1543,0,0,1-18.13379-18.13379V424.16426a18.1543,18.1543,0,0,1,18.13379-18.13379H647.32261a18.15431,18.15431,0,0,1,18.13379,18.13379v18.73242A18.1543,18.1543,0,0,1,647.32261,461.03047Zm-186.73242-53a16.15232,16.15232,0,0,0-16.13379,16.13379v18.73242a16.15232,16.15232,0,0,0,16.13379,16.13379H647.32261a16.152,16.152,0,0,0,16.13379-16.13379V424.16426a16.152,16.152,0,0,0-16.13379-16.13379Z"
     transform="translate(-241.16498 -152.3354)"
     fill="#e6e6e6"
     id="path35" />
  <path
     d="M574.5202,530.03047h-27a5,5,0,0,1,0-10h27a5,5,0,0,1,0,10Z"
     transform="translate(-241.16498 -152.3354)"
     fill="#e6e6e6"
     id="path37" />
  <path
     d="M580.7229,675.03047H541.3175a7.2973,7.2973,0,1,1,0-14.59459h39.4054a7.29729,7.29729,0,1,1,0,14.59459Z"
     transform="translate(-241.16498 -152.3354)"
     fill="#6c63ff"
     id="path39"
     style="fill:#2c2ca0" />
  <path
     d="M647.32261,600.03047H460.59019a18.1543,18.1543,0,0,1-18.13379-18.13379V563.16426a18.1543,18.1543,0,0,1,18.13379-18.13379H647.32261a18.15431,18.15431,0,0,1,18.13379,18.13379v18.73242A18.1543,18.1543,0,0,1,647.32261,600.03047Zm-186.73242-53a16.15232,16.15232,0,0,0-16.13379,16.13379v18.73242a16.15232,16.15232,0,0,0,16.13379,16.13379H647.32261a16.152,16.152,0,0,0,16.13379-16.13379V563.16426a16.152,16.152,0,0,0-16.13379-16.13379Z"
     transform="translate(-241.16498 -152.3354)"
     fill="#e6e6e6"
     id="path41" />
  <rect
     x="198.94049"
     y="193.50005"
     width="241.5"
     height="2"
     fill="#e6e6e6"
     id="rect43" />
  <path
     d="M675.325,425.20043a6.48015,6.48015,0,0,0,7.14289,5.53822,6.21585,6.21585,0,0,0,1.005-.21495l13.43482,18.18216,11.62453-3.571-21.09692-22.91754a6.46218,6.46218,0,0,0-6.75253-4.07985,6.18429,6.18429,0,0,0-5.38088,6.89471Q675.31234,425.11645,675.325,425.20043Z"
     transform="translate(-241.16498 -152.3354)"
     fill="#ffb6b6"
     id="path45" />
  <path
     d="M844.38642,552.853a6.48016,6.48016,0,0,1-.17263-9.03676,6.217,6.217,0,0,1,.77288-.6774l-6.55137-21.63712,9.80949-7.18718,5.77,30.61047a6.4622,6.4622,0,0,1-.7635,7.85232,6.18429,6.18429,0,0,1-8.74374.19474Q844.44617,552.91337,844.38642,552.853Z"
     transform="translate(-241.16498 -152.3354)"
     fill="#ffb6b6"
     id="path47" />
  <polygon
     points="547.623 582.429 537.722 582.428 533.012 544.238 547.625 544.239 547.623 582.429"
     fill="#ffb6b6"
     id="polygon49" />
  <path
     d="M789.13636,745.09346l-30.447-.00116v-.385a11.85147,11.85147,0,0,1,11.85083-11.85064h.00073l5.56152-4.21924,10.37659,4.21991,2.65783.00006Z"
     transform="translate(-241.16498 -152.3354)"
     fill="#2f2e41"
     id="path51" />
  <polygon
     points="590.623 582.429 580.722 582.428 576.012 544.238 590.625 544.239 590.623 582.429"
     fill="#ffb6b6"
     id="polygon53" />
  <path
     d="M832.13636,745.09346l-30.447-.00116v-.385a11.85147,11.85147,0,0,1,11.85083-11.85064h.00073l5.56152-4.21924,10.37659,4.21991,2.65783.00006Z"
     transform="translate(-241.16498 -152.3354)"
     fill="#2f2e41"
     id="path55" />
  <path
     d="M759.4564,529.48827s-11.27034,15.7116-3.13517,42.8558,3.56824,51.41192,5.8517,56.27806,6.88025,9.48743,3.08186,13.17679-5.79839,6.68935-2.79839,7.68935,13,71,13,71l17,1s6.15844-32.51694-.42078-58.75847c0,0,1.44431-19.05013-1.56745-24.64583s-2.42122-.54845-2.2165-7.57207a61.67021,61.67021,0,0,1,2.20473-15.02363c1-4,1.57922-44.315,1.57922-44.315L814.136,620.97167a13.32144,13.32144,0,0,1,.7298,5.7607c-.40941,2.7559-.413,6.874.0888,8.315s1.06061,1.744.7812,4.59245-.27941,78.39069-.27941,78.39069h19l9-75.5422a24.75172,24.75172,0,0,1-4-6c-2-4-2.07788-4.22047-1.03894-7.11023s1.03894-8.51969,1.03894-10.20473,1.03892-78.18208-11.98054-89.43356S759.4564,529.48827,759.4564,529.48827Z"
     transform="translate(-241.16498 -152.3354)"
     fill="#2f2e41"
     id="path57" />
  <path
     d="M817.80285,409.40283l-18.98059-4.91845-8.86-12.22L768.921,394.85109l-4.47906,16.66817-14.97969,8.6951s8.27947,87.57155,6.31006,92.38-9.03083,4.41151-3.00012,10.61,6.82952,3.7018,5.43011,10.45014-11.60059,13.89007,0,13.8192,81.60059-1.07086,79.60059-9.07086-1.9685-5.96851-4.98425-10.98425-5.0454-2.21287-4.03057-9.61431.01482-12.40144.01482-16.40144-3.35059-40.34856-3.35059-40.34856Z"
     transform="translate(-241.16498 -152.3354)"
     fill="#3f3d56"
     id="path59" />
  <path
     d="M758.58238,418.5344s-18.77953-2.13157-22.77953,6.86843-14.0806,27.74016-14.0806,27.74016-7.85936-8.22205-8.62-11.94858c-.64582-3.16394-1.00071,2.12112-6.28-3.6-2.36586-2.5639-.36586-2.5639-3.36586-3.5639l-6-2-10,9s-.19557,10.874,5,11-2-2,5,5c3.61437,3.61438.29921,3.01545,6.32283,6.6939s5.34391,3.66271,7.18377,5.67058,11.71387,3.46944,11.71387,3.46944l44.22047-24.47Z"
     transform="translate(-241.16498 -152.3354)"
     fill="#3f3d56"
     id="path61" />
  <path
     d="M807.9338,413.18615s8.05307-11.79857,21.81685,3.52985,24.05512,85.30479,23.40945,87.8166-4.27535,1.07087.03949,5.29134,7.31484,1.22047,4.31484,4.22047-9.26124,5.82315-4.13062,6.91158-14.82736,7.07958-14.82736,7.07958-2.90827-1.06261-3.03108-8.06957c-.069-3.93553,1.931-5.93553-1.069-6.93553s.689-7.67794.37354-8.832-19.31551-52.15406-19.31551-52.15406Z"
     transform="translate(-241.16498 -152.3354)"
     fill="#3f3d56"
     id="path63" />
  <circle
     cx="535.11819"
     cy="214.78169"
     r="23.0557"
     fill="#ffb6b6"
     id="circle65" />
  <path
     d="M791.4564,385.03047c-5.45-4.26,2-23-7-19,0,0-11-7-13.21-2.4-2.559,5.32635-11.66,2.91-17.25,1.03a13.58179,13.58179,0,0,0,.93-3.19,25.53831,25.53831,0,0,1-3.27,2.19,6.63788,6.63788,0,0,1-2-1.64,4.06186,4.06186,0,0,1-.51-4.61c.93-1.43,2.85-1.87,3.98-3.14a1.36734,1.36734,0,0,0,.18768-1.25624,3.59356,3.59356,0,0,1,3.21981-4.50037,1.29233,1.29233,0,0,0,.61253-.1334,14.01055,14.01055,0,0,0,2.61-2.06,25.90175,25.90175,0,0,1-3.94-.11c-.27-.03-.54-.06-.81-.1a8.85621,8.85621,0,0,1,5.47-4.97,26.01548,26.01548,0,0,1,7.92-1.11c1.55-.05,3.1-.1,4.64-.15a46.39813,46.39813,0,0,1,9.79.34,23.90839,23.90839,0,0,1,16.57,11.84C802.78641,358.21046,806.4564,378.03047,791.4564,385.03047Z"
     transform="translate(-241.16498 -152.3354)"
     fill="#2f2e41"
     id="path67" />
  <path
     d="M732.62278,493.59458,613.77313,535.615a11.7646,11.7646,0,0,1-14.99636-7.16205L578.36008,470.7068a11.76458,11.76458,0,0,1,7.162-14.99636L704.37177,413.69a11.76459,11.76459,0,0,1,14.99636,7.162l20.41667,57.74616A11.7646,11.7646,0,0,1,732.62278,493.59458Z"
     transform="translate(-241.16498 -152.3354)"
     fill="#6c63ff"
     id="path69"
     style="fill:#2c2ca0" />
  <path
     d="M606.35628,469.1179c-7.87795,5.18373-17.9746,1.28255-21.50572-4.39981l.563-.31989C592.12029,460.21775,602.08034,462.54687,606.35628,469.1179Z"
     transform="translate(-241.16498 -152.3354)"
     fill="#fff"
     id="path71" />
  <path
     d="M705.07828,483.825a6.44745,6.44745,0,0,1-5.16088-.093c-3.38219-1.68048-4.96928-6.66335-6.24453-10.66725-.37106-1.16476-.72151-2.26506-1.07836-3.16429l-.00512-.01368a7.17056,7.17056,0,0,1,4.34526-9.10434l15.98619-5.65207a6.44312,6.44312,0,0,1,5.15532.09236c3.38135,1.67839,4.96976,6.65948,6.24614,10.66185.37217,1.16713.7237,2.26964,1.08187,3.17025a7.175,7.175,0,0,1-4.34353,9.11939Z"
     transform="translate(-241.16498 -152.3354)"
     fill="#fff"
     id="path73" />
  <path
     d="M607.11876,499.72745a1.68835,1.68835,0,0,1-1.71678-.28508,2.11184,2.11184,0,0,1-.69086-1.95208,1.6943,1.6943,0,0,1,1.18988-1.31355l6.08417-2.15112a1.69732,1.69732,0,0,1,1.74984.27534,2.1118,2.1118,0,0,1,.69,1.95208,1.70163,1.70163,0,0,1-1.19014,1.31174l-6.08428,2.15116Z"
     transform="translate(-241.16498 -152.3354)"
     fill="#fff"
     id="path75" />
  <path
     d="M603.88735,513.53263a2.99213,2.99213,0,0,1-2.889-1.07961,3.74264,3.74264,0,0,1-.53781-3.63014,3.00267,3.00267,0,0,1,2.5162-1.88l22.66274-7.60517a3.008,3.008,0,0,1,2.94985,1.07391,3.74258,3.74258,0,0,1,.53628,3.62984,3.01564,3.01564,0,0,1-2.516,1.87679l-22.66294,7.60521Z"
     transform="translate(-241.16498 -152.3354)"
     fill="#fff"
     id="path77" />
  <rect
     x="579.06213"
     y="458.25823"
     width="149.13496"
     height="0.7122"
     transform="translate(-356.656 91.77431) rotate(-19.47156)"
     fill="#fff"
     id="rect79" />
  <circle
     cx="460.29142"
     cy="315.69507"
     r="4"
     fill="#6c63ff"
     id="circle81" />
  <circle
     cx="473.29142"
     cy="317.69507"
     r="3"
     fill="#6c63ff"
     id="circle83" />
  <path
     d="M241.165,746.4746a1.18647,1.18647,0,0,0,1.19006,1.19h715.29a1.19,1.19,0,0,0,0-2.38H242.355A1.18651,1.18651,0,0,0,241.165,746.4746Z"
     transform="translate(-241.16498 -152.3354)"
     fill="#ccc"
     id="path99" />
  <path
     d="M489.81939,720.68835a2.80741,2.80741,0,0,1-2.03464-4.86593l.19237-.76476q-.038-.09189-.07644-.18358a7.53909,7.53909,0,0,0-13.90673.05167c-2.27452,5.4781-5.17037,10.96553-5.8834,16.75771a22.30331,22.30331,0,0,0,.39152,7.6706,89.4194,89.4194,0,0,1-8.13413-37.13874,86.307,86.307,0,0,1,.53535-9.62829q.44349-3.93128,1.23055-7.80653A90.45569,90.45569,0,0,1,480.072,646.44319a24.07272,24.07272,0,0,0,10.01181-10.38734,18.36283,18.36283,0,0,0,1.67-5.01791c-.48739.06393-1.83779-7.35909-1.47018-7.81452-.67924-1.03071-1.895-1.54307-2.6368-2.54885-3.68944-5.0021-8.77254-4.12872-11.42613,2.66876-5.6687,2.861-5.72357,7.60577-2.24528,12.16915,2.2129,2.90325,2.51695,6.83168,4.45862,9.93985-.1998.25571-.40756.50344-.6073.75916a91.04,91.04,0,0,0-9.50223,15.05378,37.84589,37.84589,0,0,0-2.25945-17.5787c-2.16268-5.21725-6.21632-9.61123-9.786-14.12153-4.2878-5.41757-13.08033-3.05324-13.83575,3.81438q-.011.09975-.02141.19942.79532.44867,1.55706.95247a3.808,3.808,0,0,1-1.53533,6.92992l-.07765.012a37.88983,37.88983,0,0,0,.99876,5.66515c-4.57949,17.71009,5.30731,24.16047,19.42432,24.45023.31164.15979.61531.31958.92695.47144a92.9244,92.9244,0,0,0-5.00193,23.53931,88.13549,88.13549,0,0,0,.06392,14.23066l-.024-.16778a23.28923,23.28923,0,0,0-7.95036-13.44763c-6.11821-5.0259-14.76211-6.87666-21.36259-10.9165a4.37073,4.37073,0,0,0-6.69422,4.252q.01328.08818.027.17642a25.5806,25.5806,0,0,1,2.86848,1.38225q.79533.44877,1.55706.95247a3.8081,3.8081,0,0,1-1.53533,6.93l-.07772.01193c-.05591.008-.10387.016-.15972.024a37.92284,37.92284,0,0,0,6.97545,10.92265c2.86344,15.46021,15.162,16.927,28.31753,12.42488h.008a92.89781,92.89781,0,0,0,6.24043,18.21781h22.2928c.08-.24769.15185-.50341.22379-.75113a25.32943,25.32943,0,0,1-6.16855-.36745c1.654-2.02958,3.308-4.07513,4.962-6.10463a1.384,1.384,0,0,0,.10388-.11987c.839-1.03867,1.68595-2.06946,2.52491-3.10816l.00045-.00127a37.1011,37.1011,0,0,0-1.08711-9.45126Z"
     transform="translate(-241.16498 -152.3354)"
     fill="#f2f2f2"
     id="path101" />
  <g
     inkscape:label="Camada 1"
     id="layer1"
     transform="matrix(1.5147039,0,0,1.5147039,200.39694,64.429363)"
     style="fill:#2c2ca0">
    <path
       id="path156"
       style="fill:#2c2ca0;stroke-width:0.309522"
       d="m 379.40039,178.45508 h -4.45703 l -20.74414,55.89648 a 14.655249,14.655249 0 0 1 -1.25781,2.58203 14.655249,14.655249 0 0 1 -1.73829,2.28711 14.655249,14.655249 0 0 1 -2.15234,1.9043 14.655249,14.655249 0 0 1 -2.48047,1.44727 14.655249,14.655249 0 0 1 -2.71679,0.9375 14.655249,14.655249 0 0 1 -2.84571,0.38671 14.655249,14.655249 0 0 1 -2.86719,-0.17382 14.655249,14.655249 0 0 1 -2.77929,-0.73047 l -67.67188,-25.11328 a 14.655249,14.655249 0 0 1 -2.58203,-1.25782 14.655249,14.655249 0 0 1 -2.28711,-1.73828 14.655249,14.655249 0 0 1 -1.90429,-2.15234 14.655249,14.655249 0 0 1 -1.44727,-2.48047 14.655249,14.655249 0 0 1 -0.9375,-2.7168 14.655249,14.655249 0 0 1 -0.38672,-2.8457 14.655249,14.655249 0 0 1 0.17383,-2.86914 14.655249,14.655249 0 0 1 0.73047,-2.77734 l 7.63867,-20.58594 h -5.77148 l -6.98829,18.83008 a 19.623696,19.623696 0 0 0 11.57032,25.22461 l 67.34765,24.99414 a 19.623696,19.623696 0 0 0 25.22461,-11.57032 z"
       transform="scale(0.26458333)" />
    <path
       id="path152"
       style="fill:#2c2ca0;stroke-width:0.309522"
       d="m 337.84961,10.111328 a 19.623696,19.623696 0 0 0 -19.20703,12.78125 l -17.87891,48.181641 h 5.77344 l 17.13281,-46.169922 a 14.655249,14.655249 0 0 1 1.25977,-2.583985 14.655249,14.655249 0 0 1 1.73828,-2.287109 14.655249,14.655249 0 0 1 2.15039,-1.904297 14.655249,14.655249 0 0 1 2.48242,-1.447265 14.655249,14.655249 0 0 1 2.71484,-0.935547 14.655249,14.655249 0 0 1 2.84766,-0.388672 14.655249,14.655249 0 0 1 2.86719,0.173828 14.655249,14.655249 0 0 1 2.7793,0.732422 l 8.21093,3.046875 a 6.9626977,6.9626977 0 0 0 -1.09961,1.599609 6.9626977,6.9626977 0 0 0 -0.61718,1.839844 6.9626977,6.9626977 0 0 0 -0.084,1.939453 6.9626977,6.9626977 0 0 0 0.45508,1.886719 6.9626977,6.9626977 0 0 0 0.95703,1.689453 6.9626977,6.9626977 0 0 0 1.38672,1.357422 6.9626977,6.9626977 0 0 0 1.70898,0.923828 l 38.58204,14.316406 a 6.9626977,6.9626977 0 0 0 0.87109,0.259766 6.9626977,6.9626977 0 0 0 0.89648,0.144531 6.9626977,6.9626977 0 0 0 0.90821,0.02734 6.9626977,6.9626977 0 0 0 0.90429,-0.0918 6.9626977,6.9626977 0 0 0 0.88282,-0.208984 6.9626977,6.9626977 0 0 0 0.84961,-0.322266 6.9626977,6.9626977 0 0 0 0.80078,-0.431641 6.9626977,6.9626977 0 0 0 0.73633,-0.529296 6.9626977,6.9626977 0 0 0 0.6621,-0.623047 6.9626977,6.9626977 0 0 0 0.57618,-0.703125 6.9626977,6.9626977 0 0 0 0.47851,-0.771485 6.9626977,6.9626977 0 0 0 0.375,-0.826172 6.9626977,6.9626977 0 0 0 0.26172,-0.871093 6.9626977,6.9626977 0 0 0 0.14844,-0.894532 6.9626977,6.9626977 0 0 0 0.0312,-0.908203 l 8.79101,3.261719 h -0.004 a 14.655249,14.655249 0 0 1 0.92578,0.378906 14.655249,14.655249 0 0 1 0.89844,0.44336 14.655249,14.655249 0 0 1 0.86523,0.501953 14.655249,14.655249 0 0 1 0.83008,0.560547 14.655249,14.655249 0 0 1 0.78711,0.615234 14.655249,14.655249 0 0 1 0.74609,0.667969 14.655249,14.655249 0 0 1 0.69727,0.716797 14.655249,14.655249 0 0 1 0.64648,0.763672 14.655249,14.655249 0 0 1 0.59375,0.80664 14.655249,14.655249 0 0 1 0.53711,0.84375 14.655249,14.655249 0 0 1 0.47852,0.878906 14.655249,14.655249 0 0 1 0.41797,0.910157 14.655249,14.655249 0 0 1 0.35351,0.935547 14.655249,14.655249 0 0 1 0.28906,0.957031 14.655249,14.655249 0 0 1 0.22461,0.976562 14.655249,14.655249 0 0 1 0.15625,0.988281 14.655249,14.655249 0 0 1 0.0879,0.996094 14.655249,14.655249 0 0 1 0.0215,1 14.655249,14.655249 0 0 1 -0.0488,1 14.655249,14.655249 0 0 1 -0.11523,0.994141 14.655249,14.655249 0 0 1 -0.1836,0.984375 14.655249,14.655249 0 0 1 -0.25195,0.96875 14.655249,14.655249 0 0 1 -0.31445,0.949219 l -4.03125,10.861328 h 4.45703 L 422.787,61.539055 A 19.623696,19.623696 0 0 0 411.2168,36.314453 L 343.86914,11.320312 a 19.623696,19.623696 0 0 0 -6.01953,-1.208984 z"
       transform="scale(0.26458333)" />
    <circle
       id="f4a12a6a-3235-4aa9-87a4-fdfa38e5097e"
       data-name="e6b07811-3d0f-4972-ba4c-46b0c6566e33"
       cx="96.039818"
       cy="24.528997"
       r="2.1292534"
       fill="#e6e6e6"
       style="fill:#2c2ca0;stroke-width:0.0818943"
       transform="rotate(20.359599)" />
    <g
       aria-label="4Dev"
       transform="matrix(1.2053868,0,0,1.1433042,-27.173472,-9.8229659)"
       id="text891"
       style="font-size:30.4415px;line-height:1.25;font-family:'Franklin Gothic Book';-inkscape-font-specification:'Franklin Gothic Book, ';letter-spacing:-1.3791px;fill:#2c2ca0;stroke-width:0.761038">
      <path
         d="M 38.709193,46.835228 H 36.256631 V 42.004424 H 26.223422 v -1.709362 l 9.304873,-14.180269 h 3.180898 v 13.882989 h 3.284947 v 2.006642 h -3.284947 z m -2.452562,-6.837446 v -9.602153 q 0,-1.040481 0.04459,-2.244466 -0.639152,1.174257 -1.099937,1.902594 l -6.33207,9.944025 z"
         id="path931"
         style="fill:#2c2ca0" />
      <path
         d="M 44.301315,46.835228 V 26.545849 h 6.807719 q 4.2957,0 6.688806,2.928211 2.393106,2.928211 2.393106,7.164455 0,4.2957 -2.33365,7.253638 -2.33365,2.943075 -5.915878,2.943075 z m 2.541747,-2.155282 h 4.117332 q 3.270083,0 4.96458,-2.25933 1.694498,-2.25933 1.694498,-5.960469 0,-3.002531 -1.620178,-5.395637 -1.605313,-2.393107 -5.0389,-2.393107 h -4.117332 z"
         id="path933"
         style="fill:#2c2ca0" />
      <path
         d="m 72.323236,42.36116 2.170146,0.44592 q -0.594561,1.917458 -2.318786,3.180899 -1.724226,1.248577 -4.057876,1.248577 -3.076851,0 -4.979444,-2.155282 -1.902594,-2.170146 -1.902594,-5.678053 0,-3.582227 1.976914,-5.782101 1.976913,-2.214738 4.96458,-2.214738 2.943075,0 4.726756,2.03637 1.798546,2.03637 1.843138,6.094245 H 63.835884 q 0,3.403859 1.426945,4.592981 1.426946,1.189121 3.017395,1.189121 2.868755,0 4.043012,-2.957939 z M 72.18946,37.797908 q -0.02973,-1.263441 -0.416193,-2.244466 -0.386464,-0.981025 -1.308033,-1.66477 -0.921569,-0.698608 -2.214738,-0.698608 -1.739089,0 -2.957938,1.248577 -1.203986,1.248577 -1.352626,3.359267 z"
         id="path935"
         style="fill:#2c2ca0" />
      <path
         d="M 87.324279,31.822574 82.136738,46.835228 H 79.713904 L 74.347995,31.822574 h 2.586338 l 4.176788,12.203355 4.132196,-12.203355 z"
         id="path937"
         style="fill:#2c2ca0" />
    </g>
    <g
       aria-label="Bank"
       transform="matrix(1.2053868,0,0,1.1433042,-29.277809,-9.9544869)"
       id="text1861"
       style="font-size:30.4415px;line-height:1.25;letter-spacing:-1.37909px;fill:#2c2ca0;stroke-width:0.761038">
      <path
         d="m 89.408516,27.333489 h 9.453513 q 2.541751,0 3.820051,0.624289 1.27831,0.624288 2.11069,1.783681 0.83239,1.159393 0.83239,2.824163 0,3.374131 -3.65655,4.503796 2.11069,0.475648 3.16603,1.88773 1.05535,1.412081 1.05535,3.07685 0,2.274195 -1.72423,3.938964 -1.72422,1.649906 -5.603731,1.649906 h -9.453513 z m 4.741621,3.582227 v 4.44434 h 3.597091 q 1.976914,0 2.482292,-0.772928 0.52024,-0.787793 0.52024,-1.501266 0,-0.772928 -0.43106,-1.322897 -0.41619,-0.564832 -0.921566,-0.698608 -0.505377,-0.148641 -1.991778,-0.148641 z m 0,8.056296 v 4.89026 h 3.656547 q 1.872866,0 2.645796,-0.654016 0.77293,-0.654017 0.77293,-1.828274 0,-0.981025 -0.7432,-1.694498 -0.743204,-0.713472 -2.46743,-0.713472 z"
         style="font-family:'Franklin Gothic Demi';-inkscape-font-specification:'Franklin Gothic Demi';fill:#2c2ca0"
         id="path958" />
      <path
         d="m 120.75999,47.622868 h -4.2957 q -0.2081,-0.891841 -0.2081,-2.348515 -1.12967,1.605314 -2.25933,2.140418 -1.1148,0.520241 -2.54175,0.520241 -2.11069,0 -3.41872,-1.144529 -1.29317,-1.144529 -1.29317,-3.076851 0,-1.412081 0.75806,-2.601202 0.75807,-1.189121 2.4377,-1.858002 1.67964,-0.683745 6.12398,-1.010753 v -0.862113 q 0,-2.18501 -2.18501,-2.18501 -2.33365,0 -2.60121,2.18501 l -4.0876,-0.386464 q 0.40133,-2.55661 2.42283,-3.626819 2.02151,-1.070209 4.57812,-1.070209 1.53099,0 2.88362,0.356736 1.35262,0.356736 2.11069,1.070209 0.75806,0.713473 1.02562,1.516129 0.26755,0.787793 0.26755,2.764707 v 6.807718 q 0,1.96205 0.28242,2.809299 z m -4.69703,-7.194183 q -4.65244,0.460784 -4.65244,2.809299 0,0.787792 0.49051,1.367489 0.49052,0.564832 1.39722,0.564832 1.17426,0 1.96205,-0.966161 0.80266,-0.981024 0.80266,-2.40797 z"
         style="font-family:'Franklin Gothic Demi';-inkscape-font-specification:'Franklin Gothic Demi';fill:#2c2ca0"
         id="path960" />
      <path
         d="m 135.80563,47.622868 h -4.42947 v -8.427896 q 0,-1.530993 -0.11892,-2.095826 -0.11891,-0.564833 -0.57969,-0.951297 -0.46079,-0.401328 -1.1594,-0.401328 -2.33365,0 -2.33365,3.448451 v 8.427896 h -4.42947 V 32.610214 h 4.11733 v 2.541746 q 1.02562,-1.813409 2.02151,-2.33365 0.99588,-0.52024 2.15528,-0.52024 2.14042,0 3.44845,1.159393 1.30803,1.144529 1.30803,4.51866 z"
         style="font-family:'Franklin Gothic Demi';-inkscape-font-specification:'Franklin Gothic Demi';fill:#2c2ca0"
         id="path962" />
      <path
         d="m 147.99738,37.693707 4.89027,9.929161 h -4.89027 l -3.1363,-6.807719 -2.6012,2.972803 v 3.834916 h -4.17679 V 27.333489 h 4.17679 v 12.158763 l 0.65401,-0.817521 q 0.41619,-0.564832 0.69861,-0.906704 l 4.38488,-5.157813 h 4.31057 z"
         style="font-family:'Franklin Gothic Demi';-inkscape-font-specification:'Franklin Gothic Demi';fill:#2c2ca0"
         id="path964" />
    </g>
  </g>
</svg>
